<svg width="108" height="30" viewBox="0 0 108 30" fill="none" xmlns="http://www.w3.org/2000/svg">
<g clip-path="url(#clip0)">
<path d="M14.0841 22.9714C12.2668 22.9714 10.7861 24.48 10.7861 26.3314V30H17.5168V26.4686C17.5168 24.54 15.9772 22.9714 14.0841 22.9714ZM16.7175 28.8857H11.5853V26.6829C11.5853 25.2514 12.7296 24.0857 14.1346 24.0857H14.1683C15.5733 24.0857 16.7175 25.2514 16.7175 26.6829V28.8857V28.8857Z" fill="black"/>
<path d="M14.4038 15.7114V20.46H16.7764V15.1457H17.5168V21.5314H10.7945V15.3857H11.5264V20.46H13.6803V15.7114H14.4038V15.7114Z" fill="black"/>
<path d="M35 6.72857L18.9303 6.72857V11.2714L35 11.2714V6.72857Z" fill="#FFC612"/>
<path d="M17.5589 11.1086L10.8365 14.4V13.26C10.8365 13.26 15.9351 10.68 16.7344 10.5V10.5686C15.9435 10.3714 10.8365 7.92 10.8365 7.92V6.78L17.5589 9.94286V11.1086V11.1086Z" fill="black"/>
<path d="M17.5168 8.97428L12.3846 6.72857L17.5168 6.72857V8.97428Z" fill="#77797A"/>
<path d="M9.42307 6.72857L0 6.72857L0 11.2714H9.42307V6.72857Z" fill="#FFC612"/>
<path d="M14.2187 3.42857C15.1481 3.42857 15.9014 2.66106 15.9014 1.71429C15.9014 0.767512 15.1481 0 14.2187 0C13.2894 0 12.5361 0.767512 12.5361 1.71429C12.5361 2.66106 13.2894 3.42857 14.2187 3.42857Z" fill="#77797A"/>
</g>
<path d="M50 8H56.166C57.7128 8 59.0853 8.29084 60.2837 8.87252C61.4821 9.4542 62.4087 10.2738 63.0637 11.3314C63.7325 12.3758 64.0669 13.5788 64.0669 14.9405C64.0669 16.3022 63.7325 17.5118 63.0637 18.5694C62.4087 19.6138 61.4821 20.4268 60.2837 21.0085C59.0853 21.5902 57.7128 21.881 56.166 21.881H50V8ZM56.0406 20.1558C57.2251 20.1558 58.2632 19.9377 59.155 19.5014C60.0608 19.0652 60.7575 18.457 61.2452 17.6771C61.7329 16.8839 61.9768 15.9717 61.9768 14.9405C61.9768 13.9093 61.7329 13.0038 61.2452 12.2238C60.7575 11.4306 60.0608 10.8159 59.155 10.3796C58.2632 9.94334 57.2251 9.72521 56.0406 9.72521H52.0902V20.1558H56.0406Z" fill="black"/>
<path d="M76.9879 16.6856C76.9879 16.831 76.9739 17.0227 76.9461 17.2606H67.9583C68.0837 18.186 68.5087 18.933 69.2333 19.5014C69.9718 20.0567 70.8845 20.3343 71.9714 20.3343C73.2952 20.3343 74.3612 19.9112 75.1694 19.0652L76.2772 20.2946C75.7756 20.8499 75.1485 21.2729 74.396 21.5637C73.6575 21.8546 72.8284 22 71.9087 22C70.7382 22 69.7001 21.7753 68.7943 21.3258C67.8886 20.8631 67.1849 20.2219 66.6833 19.4023C66.1956 18.5826 65.9517 17.6572 65.9517 16.6261C65.9517 15.6081 66.1886 14.6893 66.6624 13.8697C67.1501 13.05 67.812 12.4155 68.648 11.966C69.498 11.5033 70.4526 11.272 71.5116 11.272C72.5706 11.272 73.5112 11.5033 74.3333 11.966C75.1694 12.4155 75.8174 13.05 76.2772 13.8697C76.751 14.6893 76.9879 15.628 76.9879 16.6856ZM71.5116 12.8782C70.5501 12.8782 69.7419 13.1558 69.087 13.711C68.446 14.2663 68.0698 14.9934 67.9583 15.8924H75.0649C74.9534 15.0066 74.5702 14.2861 73.9153 13.7309C73.2743 13.1624 72.4731 12.8782 71.5116 12.8782Z" fill="black"/>
<path d="M89.373 11.3711L84.5238 21.881H82.4754L77.6262 11.3711H79.7164L83.5205 19.7989L87.4083 11.3711H89.373Z" fill="black"/>
<path d="M91.5383 8H93.6285V21.881H91.5383V8Z" fill="black"/>
<path d="M100.914 9.72521H95.8978V8H108V9.72521H102.984V21.881H100.914V9.72521Z" fill="black"/>
<defs>
<clipPath id="clip0">
<rect width="35" height="30" fill="white"/>
</clipPath>
</defs>
</svg>
